name ./resultDataOpenSim/trcMotMarkerGrf/sub10/grf-05-05.mot
datacolumns 19
datarows 10
range 0.51600000 0.55200000
endheader

                time	     ground_force_vx	     ground_force_vy	     ground_force_vz	     ground_force_px	     ground_force_py	     ground_force_pz	   l_ground_force_vx	   l_ground_force_vy	   l_ground_force_vz	   l_ground_force_px	   l_ground_force_py	   l_ground_force_pz	     ground_torque_x	     ground_torque_y	     ground_torque_z	   l_ground_torque_x	   l_ground_torque_y	   l_ground_torque_z	
          0.51600000	         42.17777902	        461.90548389	        -21.61173731	         -0.79996917	          0.00000000	          0.03558679	          0.00000000	          0.00000000	          0.00000000	          0.00000000	          0.00000000	          0.00000000	          0.00000000	          2.93169678	          0.00000000	          0.00000000	          0.00000000	          0.00000000	
          0.52000000	         46.77614958	        467.40370345	        -21.65516941	         -0.80110477	          0.00000000	          0.03515434	          0.00000000	          0.00000000	          0.00000000	          0.00000000	          0.00000000	          0.00000000	          0.00000000	          3.17857515	          0.00000000	          0.00000000	          0.00000000	          0.00000000	
          0.52400000	         51.60154879	        473.11309551	        -21.92796466	         -0.80222037	          0.00000000	          0.03476018	          0.00000000	          0.00000000	          0.00000000	          0.00000000	          0.00000000	          0.00000000	          0.00000000	          3.41959504	          0.00000000	          0.00000000	          0.00000000	          0.00000000	
          0.52800000	         56.50647869	        478.97713758	        -22.30621869	         -0.80325756	          0.00000000	          0.03440514	          0.00000000	          0.00000000	          0.00000000	          0.00000000	          0.00000000	          0.00000000	          0.00000000	          3.66330354	          0.00000000	          0.00000000	          0.00000000	          0.00000000	
          0.53200000	         61.30596108	        484.95369009	        -22.67085871	         -0.80414161	          0.00000000	          0.03408868	          0.00000000	          0.00000000	          0.00000000	          0.00000000	          0.00000000	          0.00000000	          0.00000000	          3.91774315	          0.00000000	          0.00000000	          0.00000000	          0.00000000	
          0.53600000	         65.80930875	        491.00040444	        -22.94054629	         -0.80480258	          0.00000000	          0.03380836	          0.00000000	          0.00000000	          0.00000000	          0.00000000	          0.00000000	          0.00000000	          0.00000000	          4.18796357	          0.00000000	          0.00000000	          0.00000000	          0.00000000	
          0.54000000	         69.85023498	        497.06960722	        -23.09457121	         -0.80518451	          0.00000000	          0.03356327	          0.00000000	          0.00000000	          0.00000000	          0.00000000	          0.00000000	          0.00000000	          0.00000000	          4.47417758	          0.00000000	          0.00000000	          0.00000000	          0.00000000	
          0.54400000	         73.31070270	        503.10748448	        -23.18147455	         -0.80524357	          0.00000000	          0.03335909	          0.00000000	          0.00000000	          0.00000000	          0.00000000	          0.00000000	          0.00000000	          0.00000000	          4.77099135	          0.00000000	          0.00000000	          0.00000000	          0.00000000	
          0.54800000	         76.13571150	        509.04755095	        -23.31126008	         -0.80495072	          0.00000000	          0.03320460	          0.00000000	          0.00000000	          0.00000000	          0.00000000	          0.00000000	          0.00000000	          0.00000000	          5.06790028	          0.00000000	          0.00000000	          0.00000000	          0.00000000	
          0.55200000	         78.33624374	        514.80288359	        -23.63185616	         -0.80430059	          0.00000000	          0.03310529	          0.00000000	          0.00000000	          0.00000000	          0.00000000	          0.00000000	          0.00000000	          0.00000000	          5.35094579	          0.00000000	          0.00000000	          0.00000000	          0.00000000	
